<?xml version="1.0" encoding="utf-8"?>
<svg version="1.1" id="Layer_1"
xmlns="http://www.w3.org/2000/svg"
xmlns:xlink="http://www.w3.org/1999/xlink"
width="38px" height="36px"
xml:space="preserve">
<g id="PathID_1" transform="matrix(0.22973, 0, 0, 0.22973, 1.2, 2.4)" opacity="1">
<path style="fill:#00B454;fill-opacity:1" d="M143.65 35.15Q141.65 38.4 138.2 42.1L132.75 48.15L120.8 61.7Q114.15 69.35 110.55 73.9Q111.2 78.25 109.35 82.8Q108.35 85.4 105.75 89.95Q111.95 89.25 119.1 93.2Q120.3 85.5 122.65 83.45Q124.75 83.9 125.5 87.15L126.5 92.55Q128.35 92.2 132.55 90.35Q136.35 89 138.95 90.6Q138.35 92.95 136.25 94.9L132.4 98.25L138.8 99.85Q142.75 100.7 143.4 103.3Q141.05 104.8 137.1 104.65L130.05 104.4Q127.7 104.65 121.05 106.15L112.05 107.35L98.35 106.65Q91.7 105 89.5 100.6Q86.75 102.55 84.8 102.95Q85.3 104.05 90.1 108.85Q93.65 112.3 93.05 116.65Q92.95 117.75 92.2 118.85L90.95 121.05Q107.25 121.7 112.9 127.6Q109.95 129.85 103.15 128Q95.65 126 92.45 127.25L102.7 129.45Q108.35 130.95 111.7 132.9Q113.3 133.9 116.1 137L118.6 139.1Q119.8 140.3 119.7 141.8Q114.75 143.3 109.45 140.95Q103.8 137.85 100.7 136.75Q96.75 135.4 92.3 135.15L82.45 135.5L86.9 138.95Q89.7 140.95 89.85 143.9Q86.65 145 83.05 143.4Q77.5 140.8 76.15 140.55L70.75 139.95L64.7 139.1Q53.45 136.75 48.05 136.75L41.25 137.6Q36.8 138.35 34.7 137.6Q32.85 137 29.4 133.8Q25.45 131.2 24.35 129.95Q23.35 128.95 21.75 126.25L19.05 121.95Q15.85 117.5 14.7 114.15Q13 108.95 14.6 104.15Q14.95 103.15 15.95 101.95L17.55 99.7Q11.65 99 11 95.5Q6.6 96.9 3.25 94.3Q-0.35 91.7 0.05 86.4Q0.8 77.25 5 69.1L14.35 54.4Q22.6 41.45 29.4 38.4Q34.45 36.15 38.4 39Q42.25 41.7 41.5 46.65L45.95 43.55L50.35 40.5Q54.7 38.15 61.35 36.05L73.55 32.2L79.5 30.25Q82.8 29 84.4 27.75L87.25 24.55L90.1 21Q100.6 9.85 112.3 6.4Q113.8 0.1 121.65 0Q129.7 -0.25 129.2 7.9Q138.95 7.65 146.1 11.7Q151.5 14.95 149.55 22.85Q148.2 28.25 143.65 35.15" />
</g>
<g id="PathID_2" transform="matrix(0.22973, 0, 0, 0.22973, 1.2, 2.4)" opacity="1">
</g>
</svg>
