<?xml version="1.0" encoding="utf-8"?>
<svg version="1.1" id="Layer_1"
xmlns="http://www.w3.org/2000/svg"
xmlns:xlink="http://www.w3.org/1999/xlink"
width="158px" height="36px"
xml:space="preserve">
<g id="PathID_1" transform="matrix(0.22973, 0, 0, 0.22973, 3.75, 2.4)" opacity="1">
<path style="fill:#00B454;fill-opacity:1" d="M143.65 35.15Q141.65 38.4 138.2 42.1L132.75 48.15L120.8 61.7Q114.15 69.35 110.55 73.9Q111.2 78.25 109.35 82.8Q108.35 85.4 105.75 89.95Q111.95 89.25 119.1 93.2Q120.3 85.5 122.65 83.45Q124.75 83.9 125.5 87.15L126.5 92.55Q128.35 92.2 132.55 90.35Q136.35 89 138.95 90.6Q138.35 92.95 136.25 94.9L132.4 98.25L138.8 99.85Q142.75 100.7 143.4 103.3Q141.05 104.8 137.1 104.65L130.05 104.4Q127.7 104.65 121.05 106.15L112.05 107.35L98.35 106.65Q91.7 105 89.5 100.6Q86.75 102.55 84.8 102.95Q85.3 104.05 90.1 108.85Q93.65 112.3 93.05 116.65Q92.95 117.75 92.2 118.85L90.95 121.05Q107.25 121.7 112.9 127.6Q109.95 129.85 103.15 128Q95.65 126 92.45 127.25L102.7 129.45Q108.35 130.95 111.7 132.9Q113.3 133.9 116.1 137L118.6 139.1Q119.8 140.3 119.7 141.8Q114.75 143.3 109.45 140.95Q103.8 137.85 100.7 136.75Q96.75 135.4 92.3 135.15L82.45 135.5L86.9 138.95Q89.7 140.95 89.85 143.9Q86.65 145 83.05 143.4Q77.5 140.8 76.15 140.55L70.75 139.95L64.7 139.1Q53.45 136.75 48.05 136.75L41.25 137.6Q36.8 138.35 34.7 137.6Q32.85 137 29.4 133.8Q25.45 131.2 24.35 129.95Q23.35 128.95 21.75 126.25L19.05 121.95Q15.85 117.5 14.7 114.15Q13 108.95 14.6 104.15Q14.95 103.15 15.95 101.95L17.55 99.7Q11.65 99 11 95.5Q6.6 96.9 3.25 94.3Q-0.35 91.7 0.05 86.4Q0.8 77.25 5 69.1L14.35 54.4Q22.6 41.45 29.4 38.4Q34.45 36.15 38.4 39Q42.25 41.7 41.5 46.65L45.95 43.55L50.35 40.5Q54.7 38.15 61.35 36.05L73.55 32.2L79.5 30.25Q82.8 29 84.4 27.75L87.25 24.55L90.1 21Q100.6 9.85 112.3 6.4Q113.8 0.1 121.65 0Q129.7 -0.25 129.2 7.9Q138.95 7.65 146.1 11.7Q151.5 14.95 149.55 22.85Q148.2 28.25 143.65 35.15" />
</g>
<g id="PathID_2" transform="matrix(0.22973, 0, 0, 0.22973, 3.75, 2.4)" opacity="1">
</g>
<g id="PathID_3" transform="matrix(1, 0, 0, 1, 35.5, -4)" opacity="1">
<path style="fill:#00B454;fill-opacity:1" d="M11.5 19.4Q10.85 19.4 10.6 19Q10.4 18.7 10.3 17.7L7.6 18.55Q5.7 19.3 5.7 20.4Q6.05 20.55 6.4 20.55Q9.05 21.05 10.35 21.9Q12.3 23.15 12.3 25.45Q12.3 27.35 10.6 28.35Q9.25 29.15 7.2 29.15Q5.65 29.15 4.25 28.6Q2.45 27.95 2.45 26.8Q2.45 26.3 2.8 25.95Q3.2 25.6 3.65 25.6Q4 25.6 4.6 26.2Q4.9 26.45 5.85 26.6Q6.65 26.75 7.2 26.75Q8.15 26.75 8.9 26.55Q10 26.2 10 25.45Q10 23.9 7.75 23.3L6.55 23.05Q5 22.7 4.35 22.25Q3.4 21.6 3.4 20.25Q3.4 17.8 5.7 16.8Q6.4 16.45 7.95 16.05Q9.5 15.6 10.15 15.25Q10.6 15.05 11.2 15.05Q11.7 15.05 12.05 15.35Q12.35 15.7 12.35 16.25L12.5 17.2L12.65 18.25Q12.65 18.75 12.35 19.05Q12 19.4 11.5 19.4" />
</g>
<g id="PathID_4" transform="matrix(1, 0, 0, 1, 35.5, -4)" opacity="1">
</g>
<g id="PathID_5" transform="matrix(1, 0, 0, 1, 35.5, -4)" opacity="1">
<path style="fill:#00B454;fill-opacity:1" d="M29.3 17.95Q28.35 21.75 26.9 26.6Q26.55 27.65 25.8 28.8Q25.4 29.4 24.7 29.4Q23.4 29.35 22.7 26.2Q22.45 25.2 22.25 23.5L21.85 20.85L20.85 23.1L19.1 27.95Q18.9 28.4 18.65 28.6Q18.3 29.3 17.5 29.3Q16.65 29.35 15.8 25.8Q15.35 24 14.95 20.9L14.65 19.15Q14.5 18.1 14.5 17.35Q14.5 16.85 14.85 16.55Q15.2 16.2 15.7 16.2Q16.6 16.2 16.8 17.2L17.05 18.9L17.2 20.65L17.9 25.9Q19.25 22.3 20.6 17.55Q21 16.25 21.95 16.25Q22.9 16.25 23.2 17.75L24 21.95Q24.45 24.9 24.8 26.55L25.65 23.4L27.15 17Q27.35 16.25 28.2 16.25Q28.65 16.25 29 16.6Q29.4 16.95 29.4 17.4L29.3 17.95" />
</g>
<g id="PathID_6" transform="matrix(1, 0, 0, 1, 35.5, -4)" opacity="1">
</g>
<g id="PathID_7" transform="matrix(1, 0, 0, 1, 35.5, -4)" opacity="1">
<path style="fill:#00B454;fill-opacity:1" d="M39.55 11.95Q36.7 11.95 36.35 15.9L36.35 16.6L38.9 16.45Q40.75 16.45 40.75 17.65Q40.75 18.5 39.85 18.65L38.9 18.7L36.2 18.85L36.1 21.55L36.15 23.75L36.2 25.9Q36.2 28.1 35.95 29.35Q35.75 30.3 34.85 30.3Q34.4 30.3 34.05 30Q33.7 29.7 33.7 29.2L33.75 29Q33.95 27.45 33.95 25.65L33.95 22.45L33.95 19.05L32.05 19.15Q30.9 19.15 30.9 18.05Q30.9 16.85 32.95 16.8L34.1 16.8Q34.1 16.1 34.25 15Q34.55 12.4 35.55 11.2Q36.8 9.7 39.4 9.7Q41.05 9.7 41.05 10.8Q41.05 11.95 39.55 11.95" />
</g>
<g id="PathID_8" transform="matrix(1, 0, 0, 1, 35.5, -4)" opacity="1">
</g>
<g id="PathID_9" transform="matrix(1, 0, 0, 1, 35.5, -4)" opacity="1">
<path style="fill:#00B454;fill-opacity:1" d="M50.2 22.85Q48.6 23 44.5 23Q43.55 23 43.55 22.1Q43.55 21.2 44.5 21.2L47.3 21.1L50.1 21Q51.15 21 51.15 21.95Q51.15 22.75 50.2 22.85" />
</g>
<g id="PathID_10" transform="matrix(1, 0, 0, 1, 35.5, -4)" opacity="1">
</g>
<g id="PathID_11" transform="matrix(1, 0, 0, 1, 35.5, -4)" opacity="1">
<path style="fill:#00B454;fill-opacity:1" d="M63.5 23.4L63.2 27.3Q63.15 29.65 62.75 31.15Q62.2 33.05 61.05 33.95Q59.65 35.05 56.95 35.05Q55.4 35.05 54.35 34.8Q52.9 34.55 52.9 33.6Q52.9 32.55 53.9 32.55Q54.3 32.55 55.3 32.75Q56.3 32.95 57.5 32.95Q59.75 32.95 60.6 30.65Q61.15 29.15 61.2 26Q60.55 27.35 59.7 28.05Q58.8 28.75 57.7 28.75Q55.55 28.75 54.2 27.3Q52.9 25.85 52.9 23.55Q52.9 20.35 54.7 18.45Q56.6 16.45 59.85 16.45Q60.9 16.45 61.65 16.7Q62.4 17 62.8 17.55Q64.05 17.6 64.05 18.95Q64.05 19.8 63.8 21.2L63.5 23.4M59.7 18.75Q57.5 18.75 56.25 20.15Q55.2 21.4 55.2 23.35Q55.2 24.85 55.8 25.65Q56.45 26.4 57.75 26.4Q58.95 26.4 60.05 25.2Q61.05 24.1 61.2 23Q61.45 21.85 61.75 19.45Q61.25 19.1 60.75 18.95Q60.25 18.75 59.7 18.75" />
</g>
<g id="PathID_12" transform="matrix(1, 0, 0, 1, 35.5, -4)" opacity="1">
</g>
<g id="PathID_13" transform="matrix(1, 0, 0, 1, 35.5, -4)" opacity="1">
<path style="fill:#00B454;fill-opacity:1" d="M75.75 29.2Q75.5 29.2 74.95 28.7Q74.4 28.2 74.15 27.8Q73.05 28.45 72.15 28.75Q71.35 29.05 70.75 29.05Q68 29.05 66.75 27.5Q65.55 26.05 65.55 23.05Q65.55 20.2 67.5 18.2Q69.45 16.2 72.15 16.2Q73.2 16.2 74.45 16.75Q76.05 17.4 76.05 18.3Q76.05 18.65 75.85 18.85Q75.7 19.3 75.65 20.35Q75.55 21.35 75.55 22.95Q75.55 24.4 75.75 25.25Q75.85 25.75 76.5 27.3L76.75 27.95L76.85 28.1Q76.85 28.6 76.5 28.9Q76.2 29.2 75.75 29.2M73.3 21.05L73.35 20L73.6 18.7L72.85 18.4L72.35 18.3Q70.5 18.3 69.2 19.8Q67.9 21.25 67.9 23.2Q67.9 25.1 68.55 26.05Q69.25 27 70.6 27Q71.75 27 72.5 26.6Q72.9 26.4 73.7 25.7Q73.3 22.6 73.3 21.05" />
</g>
<g id="PathID_14" transform="matrix(1, 0, 0, 1, 35.5, -4)" opacity="1">
</g>
<g id="PathID_15" transform="matrix(1, 0, 0, 1, 35.5, -4)" opacity="1">
<path style="fill:#00B454;fill-opacity:1" d="M93.75 29.4Q92.8 29.4 92.6 28.4Q92.4 27.1 92.2 24.75L91.8 21.1Q91.7 20.3 91.4 19.55Q91 18.45 90.55 18.45Q90.1 18.45 88.9 19.2Q87.8 19.9 87.45 20.3Q87.4 21.4 87.5 22.5L87.85 25.65Q88.1 27.5 88.1 28.7Q88.1 29.2 87.75 29.55Q87.4 29.9 86.95 29.9Q86.4 29.9 86.1 29.55Q85.8 29.2 85.8 28.7Q85.8 27.3 85.5 24.5Q85.2 21.75 85.2 20.3Q85.2 19.05 84.85 18.35Q84 18.75 83.2 19.6L81.8 21.15L81.2 21.9Q81.2 22.6 81.05 23.95L80.95 26L81.05 27L81.15 27.9Q81.15 28.4 80.8 28.7Q80.45 29.05 79.95 29.05Q78.65 29.05 78.65 26.05L78.75 23.95L78.9 21.85L78.8 19.95L78.7 18.1Q78.7 15.4 79.85 15.4Q80.35 15.4 80.7 15.8Q81.1 16.2 81.1 16.7L81.05 17.35L81 18.1L81 19.3Q81.65 18.05 82.8 17.05Q84 16.05 84.8 16.05Q86.65 16.05 87.35 17.85Q88 17 88.9 16.6Q89.8 16.15 90.95 16.15Q92.9 16.15 93.6 18.3Q93.75 18.7 94.1 21.55Q94.4 23.6 94.9 28.3Q94.95 28.75 94.6 29.1Q94.25 29.4 93.75 29.4" />
</g>
<g id="PathID_16" transform="matrix(1, 0, 0, 1, 35.5, -4)" opacity="1">
</g>
<g id="PathID_17" transform="matrix(1, 0, 0, 1, 35.5, -4)" opacity="1">
<path style="fill:#00B454;fill-opacity:1" d="M103 28.95Q100.3 28.95 98.65 27.65Q96.9 26.2 96.9 23.55Q96.9 20.5 98.35 18.45Q99.95 16.15 102.65 16.15Q104.6 16.15 105.85 16.8Q107.35 17.65 107.35 19.3Q107.35 20.5 106 21.45Q105.45 21.85 103.55 22.75L99.05 24.9Q99.7 25.85 100.7 26.35Q101.65 26.85 103 26.85Q103.75 26.85 104.9 26.55Q106.25 26.15 106.65 25.5Q107.05 24.9 107.5 24.9Q107.9 24.9 108.25 25.2Q108.6 25.5 108.6 25.95Q108.6 27.25 106.45 28.15Q104.65 28.95 103 28.95M102.65 18.3Q101.2 18.3 100.25 19.4Q99.3 20.5 98.85 22.75L102.45 21Q104.55 20 105.5 19.2Q104.45 18.3 102.65 18.3" />
</g>
<g id="PathID_18" transform="matrix(1, 0, 0, 1, 35.5, -4)" opacity="1">
</g>
<g id="PathID_19" transform="matrix(1, 0, 0, 1, 35.5, -4)" opacity="1">
<path style="fill:#00B454;fill-opacity:1" d="M118.5 19.4Q117.85 19.4 117.6 19Q117.4 18.7 117.3 17.7L114.6 18.55Q112.7 19.3 112.7 20.4Q113.05 20.55 113.4 20.55Q116.05 21.05 117.35 21.9Q119.3 23.15 119.3 25.45Q119.3 27.35 117.6 28.35Q116.25 29.15 114.2 29.15Q112.65 29.15 111.25 28.6Q109.45 27.95 109.45 26.8Q109.45 26.3 109.8 25.95Q110.2 25.6 110.65 25.6Q111 25.6 111.6 26.2Q111.9 26.45 112.85 26.6Q113.65 26.75 114.2 26.75Q115.15 26.75 115.9 26.55Q117 26.2 117 25.45Q117 23.9 114.75 23.3L113.55 23.05Q112 22.7 111.35 22.25Q110.4 21.6 110.4 20.25Q110.4 17.8 112.7 16.8Q113.4 16.45 114.95 16.05Q116.5 15.6 117.15 15.25Q117.6 15.05 118.2 15.05Q118.7 15.05 119.05 15.35Q119.35 15.7 119.35 16.25L119.5 17.2L119.65 18.25Q119.65 18.75 119.35 19.05Q119 19.4 118.5 19.4" />
</g>
<g id="PathID_20" transform="matrix(1, 0, 0, 1, 35.5, -4)" opacity="1">
</g>
</svg>
